<?xml version="1.0" encoding="utf-8"?>
<!-- Generator: Adobe Illustrator 16.0.0, SVG Export Plug-In . SVG Version: 6.00 Build 0)  -->
<!DOCTYPE svg PUBLIC "-//W3C//DTD SVG 1.1//EN" "http://www.w3.org/Graphics/SVG/1.1/DTD/svg11.dtd">
<svg version="1.1" xmlns="http://www.w3.org/2000/svg" xmlns:xlink="http://www.w3.org/1999/xlink" x="0px" y="0px" width="1372px"
	 height="734px" viewBox="0 0 1372 734" style="enable-background:new 0 0 1372 734;" xml:space="preserve">
<style type="text/css">
<![CDATA[
	.st0{fill:#AFAFAF;}
	.st1{fill:#E59D29;}
	.st2{font-family:'Poppins-SemiBold';}
	.st3{fill:#848484;}
	.st4{fill:#EA6C6C;}
	.st5{fill:#EADA13;}
	.st6{fill:#B7CAE5;}
	.st7{fill:#ECF3FE;}
	.st8{fill:#1F3A6F;}
	.st9{fill:#5693DB;}
	.st10{fill:#8C8C8C;}
	.st11{fill:#F4B545;}
	.st12{fill:#92AFCC;}
	.st13{fill:#969696;}
	.st14{fill:#FAEE1C;}
	.st15{fill:#FFC25F;}
	.st16{fill:#FFC76C;}
	.st17{fill:#FFFFFF;}
	.st18{fill:#3177BC;}
	.st19{fill:#326497;}
	.st20{font-size:48;}
	.st21{fill:#072542;}
	.st22{fill:#D85D5D;}
]]>
</style>
<g id="Layer_1">
</g>
<g id="Illustration">
</g>
<g id="Learn_more">
</g>
<g id="Text">
</g>
<g id="Tittle">
	<path class="st7" d="M1149.5,680.6c38.2-54.8,126.2-193.1,109.5-283.1c-21.2-114.3-146.3-159.9-335.3-172.7S789.4,50.8,629.9,47.6
		C465.1,44.2,434,142.9,368.1,257.2c-66,114.3-178.1,45.1-262,162.1c-64.9,90.4,7.8,211.1,44.3,261.4H1149.5z"/>
	<ellipse class="st6" cx="668.3" cy="680.1" rx="686.1" ry="17.3"/>
	<g>
		<circle class="st11" cx="517.1" cy="215" r="9.8"/>
		<g>
			<path class="st6" d="M511.6,204.9c-3.2,2.3-7.6,1.7-9.9-1.5l-7.1-9.6c-23.9-32.4-68.2-41.5-103-21.2c-24,14.1-39,40.1-39,67.9
				v440.1h-14.2V240.6c0-32.9,17.6-63.6,46-80.2c41.1-24,93.3-13.2,121.6,25l7.1,9.6C515.4,198.1,514.7,202.6,511.6,204.9z"/>
		</g>
		<path class="st6" d="M501.7,203.4c0,0-13.3,16.3-5.9,33.4l51.2-37.6c0,0-14.9-10.2-33.9-4.2L501.7,203.4z"/>
	</g>
	<g>
		<circle class="st11" cx="1135.1" cy="215" r="9.8"/>
		<g>
			<path class="st6" d="M1129.6,204.9c-3.2,2.3-7.6,1.7-9.9-1.5l-7.1-9.6c-23.9-32.4-68.2-41.5-103-21.2c-24,14.1-39,40.1-39,67.9
				v440.1h-14.2V240.6c0-32.9,17.6-63.6,46-80.2c41.1-24,93.3-13.2,121.6,25l7.1,9.6C1133.4,198.1,1132.8,202.6,1129.6,204.9z"/>
		</g>
		<path class="st6" d="M1119.7,203.4c0,0-13.3,16.3-5.9,33.4l51.2-37.6c0,0-14.9-10.2-33.9-4.2L1119.7,203.4z"/>
	</g>
	<g>
		<path class="st8" d="M744,540.2h-39c-38.7,0-70.1,31.4-70.1,70.1c0,38.7,31.4,70.1,70.1,70.1h39c38.7,0,70.1-31.4,70.1-70.1
			C814.2,571.6,782.8,540.2,744,540.2z"/>
		<path class="st8" d="M1067.6,540.2h-39c-38.7,0-70.1,31.4-70.1,70.1c0,38.7,31.4,70.1,70.1,70.1h39c38.7,0,70.1-31.4,70.1-70.1
			C1137.8,571.6,1106.4,540.2,1067.6,540.2z"/>
	</g>
	<path class="st8" d="M1241,610.4c0-24.3-12.3-45.7-31.1-58.3v-11.9h-39c-38.7,0-70.1,31.4-70.1,70.1c0,38.7,31.4,70.1,70.1,70.1h39
		v-11.9C1228.7,656.1,1241,634.7,1241,610.4z"/>
	<path class="st6" d="M1322.6,577.2h-237.1V314.5h96.7c13.3,0,25.4,7.8,30.9,20l47.5,105.4c0,0,62,50,62,67.7V577.2z"/>
	<rect x="1099.2" y="328.3" class="st12" width="80.1" height="111.6"/>
	<path class="st12" d="M1245.4,439.9h-57.2V329.2c5.4,1.7,9.9,5.6,12.3,10.9L1245.4,439.9z"/>
	<path class="st8" d="M917.4,610.4c0-24.3-12.3-45.7-31.1-58.3v-11.9h-39c-38.7,0-70.1,31.4-70.1,70.1c0,38.7,31.4,70.1,70.1,70.1
		h39v-11.9C905.1,656.1,917.4,634.7,917.4,610.4z"/>
	<rect x="531.2" y="264.7" class="st22" width="174.6" height="312.6"/>
	<rect x="705.8" y="264.7" class="st4" width="379.7" height="312.6"/>
	<path class="st12" d="M1347.1,577.2v27.2H568.7c-12.5,0-22.6-10.1-22.6-22.5v-4.7H1347.1z"/>
	<path class="st19" d="M720.2,577.2c0,7.5-3,14.3-8,19.3c-4.9,4.9-11.7,8-19.3,8H568.7c-12.5,0-22.6-10.1-22.6-22.5v-4.7H720.2z"/>
	<rect x="545.6" y="285.1" class="st19" width="145.8" height="271.6"/>
	<circle class="st18" cx="886.3" cy="610.4" r="70.1"/>
	<circle class="st6" cx="886.3" cy="610.4" r="37.4"/>
	<circle class="st8" cx="886.3" cy="610.4" r="11.5"/>
	<rect x="545.6" y="285.1" class="st6" width="145.8" height="41.3"/>
	<path class="st12" d="M629.4,321.1h-21.8c-1.1,0-1.9-0.9-1.9-1.9v-1.4c0-1.1,0.9-1.9,1.9-1.9h21.8c1.1,0,1.9,0.9,1.9,1.9v1.4
		C631.4,320.3,630.5,321.1,629.4,321.1z"/>
	<path class="st12" d="M686.7,310.7H550.3c-0.3,0-0.5-0.2-0.5-0.5v-0.4c0-0.3,0.2-0.5,0.5-0.5h136.4c0.3,0,0.5,0.2,0.5,0.5v0.4
		C687.3,310.5,687,310.7,686.7,310.7z"/>
	<path class="st12" d="M686.7,301.7H550.3c-0.3,0-0.5-0.2-0.5-0.5v-0.4c0-0.3,0.2-0.5,0.5-0.5h136.4c0.3,0,0.5,0.2,0.5,0.5v0.4
		C687.3,301.5,687,301.7,686.7,301.7z"/>
	<path class="st12" d="M686.7,292.7H550.3c-0.3,0-0.5-0.2-0.5-0.5v-0.4c0-0.3,0.2-0.5,0.5-0.5h136.4c0.3,0,0.5,0.2,0.5,0.5v0.4
		C687.3,292.5,687,292.7,686.7,292.7z"/>
	<path class="st1" d="M1292.5,577.2h30v-30h-8.2c-12.1,0-21.8,9.8-21.8,21.8V577.2z"/>
	<g>
		<rect x="588.3" y="479.9" class="st11" width="103.1" height="76.8"/>
		<rect x="637.6" y="479.9" class="st1" width="53.8" height="76.8"/>
		<rect x="671.2" y="479.9" class="st11" width="13.7" height="21.6"/>
		<rect x="603.8" y="479.9" class="st16" width="13.7" height="21.6"/>
	</g>
	<g>
		<rect x="624.1" y="402.8" class="st11" width="67.3" height="76.8"/>
		<rect x="673.4" y="402.8" class="st1" width="18" height="76.8"/>
		<rect x="639.6" y="402.8" class="st16" width="13.7" height="21.6"/>
	</g>
	<g>
		<path class="st12" d="M1244.1,554.5h-143.4c-0.8,0-1.4-0.6-1.4-1.4V431.7c0-0.8,0.6-1.4,1.4-1.4c0.8,0,1.4,0.6,1.4,1.4v120h140.7
			V439.9c0-0.8,0.6-1.4,1.4-1.4c0.8,0,1.4,0.6,1.4,1.4v113.2C1245.4,553.8,1244.8,554.5,1244.1,554.5z"/>
	</g>
	<circle class="st18" cx="1209.9" cy="610.4" r="70.1"/>
	<circle class="st6" cx="1209.9" cy="610.4" r="37.4"/>
	<circle class="st8" cx="1209.9" cy="610.4" r="11.5"/>
	<g>
		<g>
			<g>
				<circle class="st8" cx="268.6" cy="669.5" r="11.1"/>
			</g>
			<rect x="53.1" y="655.9" class="st9" width="233.9" height="11.4"/>
			<g>
				<path class="st9" d="M150.5,660.1c-2.3,0-4.1-1.9-4.1-4.1V495.8c0-10.9-8.9-19.8-19.8-19.8H81.2c-10.9,0-19.8,8.9-19.8,19.8
					v160.2c0,2.3-1.9,4.1-4.1,4.1c-2.3,0-4.1-1.9-4.1-4.1V495.8c0-15.5,12.6-28.1,28.1-28.1h45.3c15.5,0,28.1,12.6,28.1,28.1v160.2
					C154.7,658.2,152.8,660.1,150.5,660.1z"/>
			</g>
			<rect x="53.1" y="655.9" class="st18" width="133" height="11.4"/>
			<g>
				<circle class="st8" cx="73.4" cy="669.5" r="11.1"/>
				<circle class="st9" cx="73.4" cy="669.5" r="6.9"/>
				<circle class="st6" cx="73.4" cy="669.5" r="3"/>
			</g>
			<g>
				<circle class="st8" cx="165.6" cy="669.5" r="11.1"/>
				<circle class="st9" cx="165.6" cy="669.5" r="6.9"/>
				<circle class="st6" cx="165.6" cy="669.5" r="3"/>
			</g>
		</g>
		<g>
			<g>
				<rect x="57.3" y="579.1" class="st11" width="156.9" height="76.8"/>
				<rect x="57.2" y="579.1" class="st1" width="97.7" height="76.8"/>
				<rect x="57.3" y="579.1" class="st11" width="156.9" height="27.4"/>
				<rect x="57.3" y="606.5" class="st15" width="156.9" height="4.4"/>
				<rect x="57.3" y="579.1" class="st1" width="97.5" height="27.4"/>
			</g>
			<g>
				<rect x="93.3" y="502.6" class="st11" width="130.3" height="76.8"/>
				<rect x="93.2" y="502.6" class="st1" width="81.1" height="76.8"/>
				<rect x="126.9" y="502.6" class="st11" width="13.7" height="21.6"/>
				<rect x="194.3" y="502.6" class="st16" width="13.7" height="21.6"/>
			</g>
			<g>
				<rect x="168.7" y="592.3" class="st11" width="104.5" height="63.6"/>
				<rect x="168.6" y="592.3" class="st1" width="65" height="63.6"/>
				<rect x="195.6" y="592.3" class="st11" width="11" height="17.9"/>
				<rect x="249.7" y="592.3" class="st16" width="11" height="17.9"/>
			</g>
			<g>
				<rect x="186.1" y="532.1" class="st11" width="91.6" height="60.3"/>
				<rect x="186.1" y="532.1" class="st1" width="57" height="60.3"/>
				<rect x="186.1" y="532.1" class="st11" width="91.6" height="21.5"/>
				<rect x="186.1" y="553.5" class="st15" width="91.6" height="3.4"/>
				<rect x="186.1" y="532.1" class="st1" width="57" height="21.5"/>
			</g>
		</g>
	</g>
	<g>
		<polygon class="st0" points="258.4,654.8 257.9,661.6 257.2,670 241.4,669.6 241.4,666.5 242.1,658.7 242.3,656.5 		"/>
		<path class="st8" d="M241.4,666.5l-3,7.5c-1.3,3.2,1.1,6.6,4.5,6.6h32.9c1.1,0,2.1-0.8,2.4-1.9l0,0c0.3-1.1-0.3-2.3-1.3-2.7
			l-19.7-9.5C257.2,666.5,243.6,672.8,241.4,666.5z"/>
		<polygon class="st0" points="287.7,669.6 287.7,666.5 286.6,659.7 286.6,659.2 286.2,656.6 303,655 303.3,660.5 303.5,666.5 
			303.6,670 		"/>
		<path class="st8" d="M287.7,666.5l-3,7.5c-1.3,3.2,1.1,6.6,4.5,6.6h32.9c1.1,0,2.1-0.8,2.4-1.9l0,0c0.3-1.1-0.3-2.3-1.3-2.7
			l-19.7-9.5C303.5,666.5,289.9,672.8,287.7,666.5z"/>
		<path class="st10" d="M242.3,656.5l16.1-1.7l-0.5,6.8c-6.7,0.2-12.8-1.7-15.8-2.9L242.3,656.5z"/>
		<path class="st10" d="M303.3,660.5c-6.6,0.9-12.8,0-16.6-0.8l-0.1-0.5l-0.4-2.6L303,655L303.3,660.5z"/>
		<path class="st8" d="M246.7,509.6l-5.2,146.9c0,0,10.4,3.5,17.4,0l11.6-113.3l15.2,114.4c0,0,9,3.5,18.8,0l-7.9-144.6
			C296.6,513.1,269.2,503.4,246.7,509.6z"/>
		<polygon class="st21" points="270.5,543.2 273,534.4 274.6,574.1 		"/>
		<path class="st8" d="M301.2,369.6c0,0,7,0.8,8.8-7.7l-3.4-0.4c0,0,4.1-1.3,5.2-5.7c0,0-8.7,1.4-13.3-1.7c-4.6-3.1-20.4-6.8-26,1.7
			c0,0-8,4.6-6.8,15.4c1.2,10.8,7.8,15.3,8.9,21.1C275.7,398,301.2,369.6,301.2,369.6z"/>
		<path class="st14" d="M301.2,483.3c-0.2,12.3,0.2,21.9,0.2,21.9l-4.7,7.9c-16.6,2.6-49.9-3.5-49.9-3.5L244,501c0,0,2-2.4,3.3-15.8
			c0-0.6,0.1-1.2,0.2-1.8c0.7-8,2.4-30,3.8-48.7c1.3-16.4,2.3-30.4,2.3-30.4l13.6-4.9l5.3-1.9l14.8,0.5l3,1.5l20.4,10
			c2.8,1.4,4.9,3.9,5.8,6.8l9.4,30.8l-23.6,13.8c-0.5,5.7-0.8,11.7-1,17.3C301.2,479.9,301.2,481.6,301.2,483.3z"/>
		<polygon class="st7" points="290.3,399.5 286.2,409.5 280.3,401.5 273.5,409.2 267.3,399.4 272.5,397.5 287.3,398 		"/>
		<path class="st0" d="M301.2,369.6c0,0.9-0.1,1.7-0.1,2.5c-0.3,4.8-0.9,8.5-1.7,11.5c-0.8,2.8-2.4,5.3-4.6,6.9
			c-2.2,1.7-5,2.7-7.9,2.7l0.5,4.8c0.4,3.4-2.3,6.3-5.7,6.3h-3.5c-3.6,0-6.3-3.3-5.6-6.9l1.3-6.7l1.5-7.3c0,0-4.4-1.8-3-7.1
			c1.4-5.3,5.6-3,5.6-3l0.1,2.7c0,0.6,0.5,1.1,1.1,1.2c0.6,0.1,1.1-0.2,1.4-0.7l2.1-4.4l0.9-5.6l0.2-1.3
			C289.4,369.6,301.1,369.6,301.2,369.6z"/>
		<g>
			<rect x="270.6" y="431.4" class="st11" width="95.1" height="46.6"/>
			<rect x="270.6" y="431.4" class="st1" width="59.2" height="46.6"/>
			<rect x="270.6" y="431.4" class="st11" width="95.1" height="16.6"/>
			<rect x="270.6" y="448" class="st15" width="95.1" height="2.6"/>
			<rect x="270.6" y="431.4" class="st1" width="59.1" height="16.6"/>
		</g>
		<path class="st5" d="M304.3,479.5l-0.7,3.8c0,0-1,0-2.5,0c-4.2-0.1-12.6-0.4-15.3-1.6c0,0-22.9,2.8-32.4,0.5c0,0-3.3-0.4-6.1,2.9
			c0-0.6,0.1-1.2,0.2-1.8c0.7-8,2.4-30,3.8-48.7l3.7,3.5l-2.2,16.1c-0.3,2.1,0.9,4.1,2.9,4.9l26.7,10l18.8,8.9L304.3,479.5z"/>
		<path class="st0" d="M311.9,478.2c-3.5,2.8-10.7,4-10.7,4l-16-2.2l-0.9-10l1.7,0.2l3.7,0.4l6.8-1.2c1.2-0.1,3.9-1,5.1-1.5
			c0.7-0.3,1.6,0.4,1.3,1.2c-0.3,1.3-1.1,2.5-2,3.1c-1.3,0.9-4,3.2-4,3.2c2.4,1.8,8.1,2.5,11.8,2.7c0,0,0,0,0,0
			C310.5,478.2,311.9,478.2,311.9,478.2z"/>
		<path class="st10" d="M286.8,393.2c0,0-4.4-0.5-7-4.4c0,0,1.2,5.9,7.3,7.7L286.8,393.2z"/>
		<path class="st10" d="M296.9,475.3L296.9,475.3c-0.8-0.7-0.8-1.9,0.1-2.5l5.9-3.8c-0.3,1.3-1.1,2.5-2,3.1
			C299.6,473,296.9,475.3,296.9,475.3z"/>
		<path class="st10" d="M311.9,478.2c-3.5,2.8-10.7,4-10.7,4l-16-2.2l-0.9-10l1.7,0.2c-1,4.9,0,8.3,0,8.3s2.9,1.1,8.8,1.6
			c5.8,0.5,13.7-2,14-2c0,0,0,0,0,0C310.5,478.2,311.9,478.2,311.9,478.2z"/>
		<path class="st14" d="M253.7,404.3l-3.3,0.9c-3.4,0.9-6.2,3.6-7.3,7l-14.5,45.6c-2.6,8.2,2.6,16.9,11,18.4
			c11.5,2.1,28.1,4.3,45.5,3.9c0,0-1-4.5,0.7-9.8l-39.3-11.7l8.5-20.4C255.1,438.1,261.2,408.4,253.7,404.3z"/>
		<polygon class="st10" points="275.4,383.4 276.6,383.2 273.9,390.8 		"/>
		<path class="st10" d="M301.2,369.6c0,0.9-0.1,1.7-0.1,2.5c-4.3-0.6-13.9-2.1-17.6-5.6l0.2-1.3
			C289.4,369.6,301.1,369.6,301.2,369.6z"/>
		<path class="st0" d="M365.8,456.8l-10.2-1.1c-0.8-0.1-1.5,0.6-1.5,1.4l0.6,8.5c0.1,0.8,0.6,1.4,1.3,1.6l9.8,2.8l1.5-1l0.9-10.6
			L365.8,456.8z"/>
	</g>
	<g>
		<polygon class="st0" points="452.6,651.3 450.9,656.6 449,662.3 444.4,669.6 432.8,664.3 432.8,659.9 435.5,650.2 436.4,647.1 		
			"/>
		<path class="st8" d="M432.8,659.9l-3.1,7.8c-1.3,3.3,1,5.3,4.7,6.9l13,5.9h17.4c1.2,0,2.2-0.8,2.5-2l0,0c0.3-1.2-0.3-2.4-1.4-2.9
			l-8.6-4.1l-8.3-9.3C449,662.3,435.1,666.5,432.8,659.9z"/>
		<path class="st10" d="M452.6,651.3l-1.7,5.3c-6.3,0.1-12.6-4.2-15.3-6.4l0.9-3.1L452.6,651.3z"/>
		<polygon class="st0" points="491.8,669.1 491.8,665.8 490.7,658.7 490.6,658.2 490.2,655.4 507.8,653.7 508.1,659.6 508.4,665.9 
			508.4,669.5 		"/>
		<path class="st8" d="M491.8,665.9l-3.1,7.8c-1.3,3.3,1.1,6.9,4.7,6.9h34.5c1.2,0,2.2-0.8,2.5-2l0,0c0.3-1.2-0.3-2.4-1.4-2.9
			l-20.6-9.9C508.4,665.9,494.1,672.4,491.8,665.9z"/>
		<path class="st10" d="M508.1,659.6c-6.9,0.9-13.5,0-17.4-0.8l-0.1-0.5l-0.4-2.8l17.7-1.7L508.1,659.6z"/>
		<path class="st8" d="M448.8,501.4l-3.2,89.5l-10.9,56.5c0,0,12.1,9.8,19.5,6.2l16.2-63.9l3.3-53l16,119.9c0,0,9.4,3.6,19.7,0
			l-8.3-151.5C501.1,505.1,472.3,494.9,448.8,501.4z"/>
		<polygon class="st21" points="473.7,536.6 476.4,527.4 478.1,569 		"/>
		<path class="st14" d="M505.9,473.8c-0.2,12.9,0.2,23,0.2,23l-5,8.3c-17.4,2.8-52.3-3.7-52.3-3.7l-2.8-9c0,0,2.1-2.5,3.5-16.6
			c0.1-0.6,0.1-1.3,0.2-1.9c0.7-8.4,2.5-31.4,4-51.1c1.3-17.2,2.4-31.8,2.4-31.8l14.3-5.1l5.5-2l15.5,0.6l3.1,1.5l21.3,10.5
			c2.9,1.4,5.2,4,6.1,7.2l9.9,32.3l-24.7,14.4c-0.6,6-0.9,12.2-1.1,18.1C506,470.2,505.9,472,505.9,473.8z"/>
		<path class="st13" d="M536.3,466.5l2.2,4c0,0,4.1,3,13.7,0.9l4.1-5.5L536.3,466.5z"/>
		<polygon class="st7" points="494.5,386 490.2,396.5 484,388.1 476.9,396.2 470.3,385.9 475.9,383.9 491.4,384.4 		"/>
		<g>
			<rect x="473.9" y="419.4" class="st11" width="99.7" height="48.8"/>
			<rect x="473.8" y="419.4" class="st1" width="62" height="48.8"/>
			<rect x="473.9" y="419.4" class="st11" width="99.7" height="17.4"/>
			<rect x="473.9" y="436.8" class="st15" width="99.7" height="2.8"/>
			<rect x="473.9" y="419.4" class="st1" width="62" height="17.4"/>
		</g>
		<path class="st5" d="M509.2,469.9l-0.7,4c0,0-1,0-2.6,0c-4.4-0.1-13.2-0.4-16-1.7c0,0-24,2.9-34,0.6c0,0-3.5-0.4-6.4,3.1
			c0.1-0.6,0.1-1.3,0.2-1.9c0.7-8.4,2.5-31.4,4-51.1l3.9,3.7l-2.3,16.9c-0.3,2.2,1,4.3,3,5.1l27.9,10.5l19.8,9.4L509.2,469.9z"/>
		<path class="st0" d="M517.1,468.5c-3.7,3-11.2,4.2-11.2,4.2l-16.8-2.3l-1-10.5l1.7,0.2l3.9,0.4l7.1-1.3c1.2-0.1,4.1-1,5.3-1.5
			c0.8-0.3,1.6,0.4,1.4,1.2c-0.4,1.4-1.2,2.6-2.1,3.3c-1.3,0.9-4.2,3.3-4.2,3.3c2.5,1.9,8.5,2.6,12.3,2.9c0,0,0,0,0,0
			C515.7,468.4,517.1,468.5,517.1,468.5z"/>
		<path class="st3" d="M501.4,465.4L501.4,465.4c-0.9-0.7-0.8-2,0.1-2.6l6.1-4c-0.4,1.4-1.2,2.6-2.1,3.3
			C504.2,463,501.4,465.4,501.4,465.4z"/>
		<path class="st10" d="M517.1,468.5c-3.7,3-11.2,4.2-11.2,4.2l-16.8-2.3l-1-10.5l1.7,0.2c-1.1,5.1,0,8.7,0,8.7s3,1.2,9.2,1.7
			c6.1,0.5,14.4-2.1,14.6-2.1c0,0,0,0,0,0C515.7,468.4,517.1,468.5,517.1,468.5z"/>
		<path class="st14" d="M456.1,391l-3.5,0.9c-3.6,1-6.5,3.7-7.6,7.3L429.9,447c-2.7,8.6,2.7,17.7,11.6,19.3
			c12.1,2.2,29.5,4.5,47.7,4.1c0,0-1.1-4.7,0.8-10.3l-41.2-12.2l8.9-21.4C457.6,426.5,464,395.3,456.1,391z"/>
		<path class="st8" d="M466.7,351.7c0,0-1,15.6,10.9,25s8.4-28.3,8.4-28.3L466.7,351.7z"/>
		<path class="st0" d="M501.1,370.8c-0.7,2.1-2.1,3.9-3.8,5.1c-1.7,1.2-3.8,1.9-6,1.9l0.2,7.3l0-0.7v0.2c0,4.5-3.7,8.2-8.2,8.2
			c-4.8,0-8.5-4.1-8.1-8.9l0.2-1.2l1.3-14.1c-2.6,0.9-6.1-6.9-4.1-10.5c1.9-3.7,5.4-1.5,5.4-1.5c0.2,1.1,1,2.2,1.7,3
			c0.4,0.5,1.3,0.3,1.4-0.3l1-4.2l0.6-2.4H503c0,0.8,0.1,1.6,0.1,2.4C503.1,362,502.4,366.9,501.1,370.8z"/>
		<path class="st9" d="M503,352.6c0,0-1.5-16.1-17.9-16.1c-16.4,0-18.3,15.2-18.3,15.2l15.9,0.9H503z"/>
		<path class="st8" d="M514.1,350.5h-30.8c-0.4,0-0.8,0.3-0.8,0.8v0.6c0,0.4,0.3,0.8,0.8,0.8h30.8c0.4,0,0.8-0.3,0.8-0.8v-0.6
			C514.9,350.9,514.5,350.5,514.1,350.5z"/>
		<polygon class="st10" points="476.7,368.6 478.5,367.4 475.4,382.7 475.4,382.7 		"/>
		<path class="st10" d="M491.2,377.9l0.2,7.3l-0.2,0c0,0-6.3-3.6-8.3-11.5C482.9,373.7,486.3,377.9,491.2,377.9z"/>
		<path class="st10" d="M503,355h-21l0.6-2.4H503C503,353.4,503,354.2,503,355z"/>
	</g>
	<path class="st11" d="M657.7,99.2c-27.5,0.8-50.2,22.8-51.9,50.2c-1,16.2,5.2,30.9,15.7,41.4l31.1,42.6c3.3,4.6,10.2,4.6,13.5,0
		l31.1-42.6c9.8-9.7,15.8-23.1,15.8-38C712.9,122.6,688,98.3,657.7,99.2z M659.3,182.2c-16.3,0-29.4-13.2-29.4-29.4
		s13.2-29.4,29.4-29.4c16.2,0,29.4,13.2,29.4,29.4S675.5,182.2,659.3,182.2z"/>
	<g>
		<path class="st11" d="M758.8,208l2.9,10.3c0.2,0.7,0.7,1.2,1.4,1.4l10.3,2.9c2,0.5,2,3.3,0,3.9l-10.3,2.9
			c-0.7,0.2-1.2,0.7-1.4,1.4l-2.9,10.3c-0.5,2-3.3,2-3.9,0l-2.9-10.3c-0.2-0.7-0.7-1.2-1.4-1.4l-10.3-2.9c-2-0.5-2-3.3,0-3.9
			l10.3-2.9c0.7-0.2,1.2-0.7,1.4-1.4l2.9-10.3C755.5,206.1,758.3,206.1,758.8,208z"/>
		<path class="st11" d="M400.2,208l2.9,10.3c0.2,0.7,0.7,1.2,1.4,1.4l10.3,2.9c2,0.5,2,3.3,0,3.9l-10.3,2.9
			c-0.7,0.2-1.2,0.7-1.4,1.4l-2.9,10.3c-0.5,2-3.3,2-3.9,0l-2.9-10.3c-0.2-0.7-0.7-1.2-1.4-1.4l-10.3-2.9c-2-0.5-2-3.3,0-3.9
			l10.3-2.9c0.7-0.2,1.2-0.7,1.4-1.4l2.9-10.3C396.9,206.1,399.7,206.1,400.2,208z"/>
		<path class="st11" d="M203,441.3l2.9,10.3c0.2,0.7,0.7,1.2,1.4,1.4l10.3,2.9c2,0.5,2,3.3,0,3.9l-10.3,2.9
			c-0.7,0.2-1.2,0.7-1.4,1.4l-2.9,10.3c-0.5,2-3.3,2-3.9,0l-2.9-10.3c-0.2-0.7-0.7-1.2-1.4-1.4l-10.3-2.9c-2-0.5-2-3.3,0-3.9
			l10.3-2.9c0.7-0.2,1.2-0.7,1.4-1.4l2.9-10.3C199.7,439.3,202.5,439.3,203,441.3z"/>
		<circle class="st6" cx="1125.3" cy="287.3" r="9"/>
		<circle class="st6" cx="426.4" cy="326.5" r="9"/>
		<circle class="st6" cx="172.5" cy="404.3" r="9"/>
		<circle class="st6" cx="556.3" cy="123.4" r="9"/>
	</g>
	<text transform="matrix(0.9997 -2.402218e-002 2.402218e-002 0.9997 800.1787 447.9805)" class="st17 st2 st20">5Eleven</text>
</g>
<g id="Log_in">
</g>
<g id="Sign_Up">
</g>
<g id="Menu">
</g>
<g id="Logo">
</g>
</svg>
